<?xml version="1.0" encoding="UTF-8" standalone="no"?>
<svg width="422px" height="140px" viewBox="0 0 422 140" version="1.1" xmlns="http://www.w3.org/2000/svg" xmlns:xlink="http://www.w3.org/1999/xlink">
    <!-- Generator: Sketch 48.2 (47327) - http://www.bohemiancoding.com/sketch -->
    <title>cryptopanic-logo-on-dark</title>
    <desc>Created with Sketch.</desc>
    <defs></defs>
    <g id="cryptopanic-hawling-wolf-logo" stroke="none" stroke-width="1" fill="none" fill-rule="evenodd" transform="translate(-701.000000, -330.000000)">
        <g id="cryptopanic-logo-on-dark" transform="translate(701.000000, 330.000000)">
            <g id="Group-16-Copy" transform="translate(168.000000, 10.000000)">
                <g id="Group-5">
                    <path d="M4.26325641e-14,23.4930247 C4.26325641e-14,36.7976784 9.46162091,46.7761686 23.4974029,46.7761686 C35.2147745,46.7761686 41.5434084,39.2452326 41.5434084,39.2452326 L35.9040317,31.2122341 C35.9040317,31.2122341 30.7659329,36.7349206 23.9986808,36.7349206 C15.727595,36.7349206 11.3414131,29.8943203 11.3414131,23.2419935 C11.3414131,16.7779401 15.4142963,10.4394023 23.9986808,10.4394023 C30.2019952,10.4394023 35.2147745,15.0207217 35.2147745,15.0207217 L40.2902135,6.73669208 C40.2902135,6.73669208 34.5881771,0.398154258 23.4974029,0.398154258 C10.0255586,0.398154258 4.26325641e-14,10.4394023 4.26325641e-14,23.4930247 L4.26325641e-14,23.4930247 Z M48.1853409,46.023075 L59.1507956,46.023075 L59.1507956,30.8984451 L64.2888944,30.8984451 L72.2466815,46.023075 L84.465331,46.023075 L75.755627,30.3336249 C74.6904114,28.4508909 74.063814,27.6350395 74.063814,27.6350395 L74.063814,27.5095239 C78.5126556,25.2502431 80.7684063,20.0413457 80.7684063,15.2717529 C80.7684063,8.74494168 77.5727595,4.16362227 72.4973205,2.21813046 C70.5548685,1.46503686 68.3617776,1.15124786 63.7876165,1.15124786 L48.1853409,1.15124786 L48.1853409,46.023075 Z M59.1507956,21.4847751 L59.1507956,10.5649179 L62.8477203,10.5649179 C68.3617776,10.5649179 69.6149724,12.5731675 69.6149724,15.9620887 C69.6149724,19.5392833 67.4218814,21.4847751 63.9129359,21.4847751 L59.1507956,21.4847751 Z M100.380905,46.023075 L111.34636,46.023075 L111.34636,27.6350395 L126.134059,1.15124786 L113.66477,1.15124786 L108.651991,11.9455895 C107.210817,15.0207217 105.957622,18.4096429 105.957622,18.4096429 L105.832303,18.4096429 C105.832303,18.4096429 104.579108,15.0207217 103.137934,11.9455895 L98.0624948,1.15124786 L85.5932064,1.15124786 L100.380905,27.6350395 L100.380905,46.023075 Z M131.146838,46.023075 L142.112293,46.023075 L142.112293,32.1536011 L149.756781,32.1536011 C158.466485,32.1536011 164.356501,25.6267899 164.356501,16.5896667 C164.356501,7.55254348 158.466485,1.15124786 149.756781,1.15124786 L131.146838,1.15124786 L131.146838,46.023075 Z M142.112293,22.7399311 L142.112293,10.5649179 L147.68901,10.5649179 C151.323275,10.5649179 153.203067,13.0124721 153.203067,16.5896667 C153.203067,20.1668613 151.323275,22.7399311 147.501031,22.7399311 L142.112293,22.7399311 Z M179.457499,46.023075 L190.422953,46.023075 L190.422953,10.5649179 L204.020117,10.5649179 L204.020117,1.15124786 L165.860335,1.15124786 L165.860335,10.5649179 L179.457499,10.5649179 L179.457499,46.023075 Z M206.463847,23.3047513 C206.463847,36.4838894 216.364086,46.7761686 229.89859,46.7761686 C243.433094,46.7761686 253.333333,36.4838894 253.333333,23.3047513 C253.333333,10.4394023 243.433094,0.398154258 229.89859,0.398154258 C216.364086,0.398154258 206.463847,10.4394023 206.463847,23.3047513 L206.463847,23.3047513 Z M217.80526,23.3047513 C217.80526,15.9620887 223.193998,10.4394023 229.89859,10.4394023 C236.603182,10.4394023 241.99192,15.9620887 241.99192,23.3047513 C241.99192,30.9612029 236.603182,36.7349206 229.89859,36.7349206 C223.193998,36.7349206 217.80526,30.9612029 217.80526,23.3047513 L217.80526,23.3047513 Z" id="CRYPTO" fill="#FF9933"></path>
                    <path d="M36.9748409,70.1304208 C40.7376161,73.3350668 42.6189754,78.2573293 42.6189754,84.8973559 C42.6189754,91.5373825 40.6864226,96.395553 36.821259,99.4720132 C32.9560953,102.548473 27.0560499,104.08668 19.1209457,104.08668 L11.9793877,104.08668 L11.9793877,119.084349 L0,119.084349 L0,65.3234758 L18.9673638,65.3234758 C27.2096333,65.3234758 33.2120657,66.9257747 36.9748409,70.1304208 L36.9748409,70.1304208 Z M28.1822775,91.2809789 C29.6157156,89.6658373 30.332424,87.3072532 30.332424,84.2051558 C30.332424,81.1030584 29.3981435,78.898295 27.5295544,77.5907995 C25.6609654,76.2833039 22.7557369,75.6295659 18.813782,75.6295659 L11.9793877,75.6295659 L11.9793877,93.7036792 L20.0424371,93.7036792 C24.0355863,93.7036792 26.7488393,92.8961205 28.1822775,91.2809789 L28.1822775,91.2809789 Z M90.1525715,119.084349 L85.1611599,107.47077 L62.6614125,107.47077 L57.670001,119.084349 L44.9227038,119.084349 L68.1135698,65.3234758 L79.7090027,65.3234758 L102.899869,119.084349 L90.1525715,119.084349 Z M73.9496817,81.3209888 L67.1920784,96.9339462 L80.6304941,96.9339462 L73.9496817,81.3209888 Z M149.742346,65.3234758 L161.721734,65.3234758 L161.721734,119.084349 L149.742346,119.084349 L124.170961,85.3972782 L124.170961,119.084349 L112.191573,119.084349 L112.191573,65.3234758 L123.403051,65.3234758 L149.742346,99.9334799 L149.742346,65.3234758 Z M178.001415,65.3234758 L189.980802,65.3234758 L189.980802,119.084349 L178.001415,119.084349 L178.001415,65.3234758 Z M230.910377,108.470614 C236.797712,108.470614 241.609897,106.137667 245.347075,101.471702 L253.02617,109.393548 C246.934057,116.264309 239.754176,119.699638 231.486309,119.699638 C223.218442,119.699638 216.409713,117.084686 211.059917,111.854704 C205.710121,106.624721 203.035263,100.023249 203.035263,92.0500901 C203.035263,84.0769307 205.761315,77.4241854 211.213499,72.0916543 C216.665684,66.7591233 223.333631,64.0928978 231.217541,64.0928978 C240.022947,64.0928978 247.394804,67.4513165 253.333333,74.1682546 L245.884611,82.6284778 C242.096239,77.9112389 237.386442,75.5526548 231.755077,75.5526548 C227.249986,75.5526548 223.397679,77.0267698 220.19804,79.9750442 C216.998401,82.9233185 215.398606,86.89702 215.398606,91.8962678 C215.398606,96.8955157 216.908812,100.907672 219.929271,103.932858 C222.949731,106.958044 226.610062,108.470614 230.910377,108.470614 L230.910377,108.470614 Z" id="PANIC" fill="#FFFFFF"></path>
                </g>
            </g>
            <path d="M57.3782934,138.900858 C58.30356,137.808873 59.3340119,136.591467 60.4944661,135.227031 C65.3761112,129.587254 69.844024,123.35448 73.6178714,115.179173 L74.2964713,118.679111 C78.3351863,113.410745 79.0350428,102.093192 78.932575,99.7349291 C79.7175034,96.7530723 80.5024319,93.7712156 81.1249606,90.24068 C83.6286106,78.9811631 93.0090996,63.9938055 97.1502825,61.0837036 C101.291465,58.1736016 99.1512676,49.7355533 99.1512676,49.7355533 C99.1512676,49.7355533 89.6122395,55.3341738 88.6668416,53.3473225 C87.7659101,51.1082901 94.3179496,46.2830916 94.0260115,37.6508979 C93.7785398,28.766523 86.5788316,26.9769768 86.5788316,26.9769768 L73.5772204,38.9856372 C71.4176963,40.9450504 68.8889063,42.0592869 66.0353167,42.0761655 C56.9274168,42.2903492 49.6484504,52.7078489 47.8137258,55.76462 C47.8137258,55.76462 39.5023592,60.2796017 30.0232631,64.0686376 C29.1803331,64.4400498 32.327791,68.6353358 39.3650995,69.8762031 C39.3650995,69.8762031 46.535807,70.3605271 49.5672619,69.334924 C45.0858138,72.7050716 40.0881657,73.12396 36.2292464,72.9635719 C33.1378595,75.7987595 29.2480091,78.7531782 24.5596949,81.8268279 C24.0125637,81.9903756 23.4209661,82.4061044 22.8293686,82.8218333 C22.8293686,82.8218333 11.1617475,87.2650602 4.13797427,88.8868185 C4.13797427,88.8868185 6.56236605,89.8343477 11.1308164,90.379867 C8.66069579,91.7708054 6.34367601,93.1887395 4.26432091,94.154084 C1.50592088,86.6252074 0,78.489074 0,70 C0,61.6884343 1.4436011,53.7152033 4.09292999,46.3190013 C14.473001,44.6520221 32.2866329,41.6222536 32.3060914,40.4591873 C32.322693,39.5260369 19.3465148,37.1625635 9.08142428,35.4392751 C9.82651605,34.1249146 10.6127966,32.8371284 11.4385039,31.5776847 C16.1259452,30.8602817 46.2976238,26.1839209 46.322951,24.6700706 C46.340393,23.6896825 32.0163252,21.130495 21.5622517,19.3936408 C34.0869637,7.37936311 51.0643002,0 69.7592516,0 C108.286222,0 139.518503,31.3400675 139.518503,70 C139.518503,78.3551334 138.059728,86.3683757 135.383812,93.7972596 C124.949782,95.4969555 107.478472,98.5051087 107.497734,99.5877949 C107.514167,100.570007 120.221122,102.883522 130.424297,104.583262 C129.662562,105.925824 128.857841,107.240636 128.012015,108.525811 C122.334498,109.411504 93.4561135,113.985123 93.4808747,115.376912 C93.4981395,116.40886 107.52368,118.91035 117.936172,120.625613 C105.413397,132.62852 88.4442142,140 69.7592516,140 C65.5340039,140 61.3964928,139.623058 57.3782934,138.900858 Z M64.352,51.4075167 L66.039824,46.2443796 L69.1157033,44.9664914 C67.7816425,52.5323262 64.352,51.4075167 64.352,51.4075167 L64.352,51.4075167 Z" id="Combined-Shape" fill="#FF9933"></path>
        </g>
    </g>
</svg>